<?xml version="1.0" encoding="UTF-8" standalone="no"?>
<!-- https://en.m.wikipedia.org/wiki/File:DeepSeek_logo.svg -->
<svg
   id="Layer_1"
   version="1.1"
   viewBox="0 0 55.999999 55.999999"
   sodipodi:docname="DeepSeek_logo.svg"
   width="56"
   height="56"
   inkscape:version="1.4 (e7c3feb100, 2024-10-09)"
   xmlns:inkscape="http://www.inkscape.org/namespaces/inkscape"
   xmlns:sodipodi="http://sodipodi.sourceforge.net/DTD/sodipodi-0.dtd"
   xmlns="http://www.w3.org/2000/svg"
   xmlns:svg="http://www.w3.org/2000/svg">
  <sodipodi:namedview
     id="namedview2"
     pagecolor="#ffffff"
     bordercolor="#111111"
     borderopacity="1"
     inkscape:showpageshadow="0"
     inkscape:pageopacity="0"
     inkscape:pagecheckerboard="1"
     inkscape:deskcolor="#d1d1d1"
     inkscape:zoom="9.0604835"
     inkscape:cx="42.657768"
     inkscape:cy="17.16244"
     inkscape:window-width="1920"
     inkscape:window-height="1052"
     inkscape:window-x="0"
     inkscape:window-y="28"
     inkscape:window-maximized="1"
     inkscape:current-layer="Layer_1" />
  <!-- Generator: Adobe Illustrator 29.2.1, SVG Export Plug-In . SVG Version: 2.1.0 Build 116)  -->
  <defs
     id="defs1">
    <style
       id="style1">
      .st0 {
        fill: #4d6bfe;
      }
    </style>
  </defs>
  <path
     class="st0"
     d="m 55.412487,10.853547 c -0.593156,-0.29065 -0.848632,0.263248 -1.195479,0.544631 -0.118671,0.09077 -0.219008,0.208745 -0.319445,0.317651 -0.866966,0.925853 -1.879904,1.534254 -3.20322,1.461517 -1.934706,-0.109006 -3.586535,0.499395 -5.046756,1.979145 C 45.337309,13.331788 44.306136,12.242227 42.736411,11.543353 41.91518,11.180166 41.084682,10.816979 40.509661,10.027134 40.108112,9.4644681 39.998608,8.8380327 39.797834,8.2206645 39.669996,7.8485098 39.542258,7.4670887 39.113309,7.4035185 38.647891,7.3309807 38.465351,7.7211702 38.282811,8.048188 c -0.730061,1.3345755 -1.012938,2.805259 -0.985637,4.294077 0.06387,3.34999 1.478455,6.018841 4.289194,7.916282 0.319446,0.217912 0.401549,0.435625 0.301212,0.753576 -0.191707,0.653637 -0.419883,1.28904 -0.620557,1.942677 -0.127838,0.41769 -0.319545,0.508462 -0.766629,0.326719 -1.542324,-0.644371 -2.874807,-1.597724 -4.052052,-2.750557 -1.998575,-1.933709 -3.805542,-4.067097 -6.059594,-5.737558 -0.529287,-0.390389 -1.058673,-0.753377 -1.606293,-1.098529 -2.299786,-2.233127 0.301211,-4.0670973 0.903534,-4.2848102 0.629623,-0.2269795 0.219008,-1.0078566 -1.816135,-0.9985901 -2.035143,0.00897 -3.896813,0.689906 -6.269536,1.5977243 -0.346746,0.136208 -0.711926,0.235947 -1.086073,0.317652 C 18.36053,9.918427 16.124613,9.8274559 13.788359,10.090904 9.3895608,10.581032 5.8761619,12.660016 3.2934982,16.209684 0.1907149,20.476459 -0.53934591,25.324135 0.35502093,30.380855 1.2950228,35.709691 4.0144918,40.121741 8.1942818,43.57167 c 4.3349292,3.57667 9.3268832,5.328836 15.0214962,4.99295 3.458797,-0.199678 7.309975,-0.662605 11.653971,-4.339313 1.095042,0.54473 2.244984,0.762443 4.152389,0.925853 1.469289,0.136207 2.883875,-0.07254 3.978916,-0.299418 1.715698,-0.363187 1.597127,-1.951944 0.97657,-2.242394 -5.028422,-2.342133 -3.924314,-1.388978 -4.928085,-2.160689 2.555263,-3.022972 6.40654,-6.164216 7.912297,-16.341027 0.118571,-0.807879 0.01823,-1.316341 0,-1.969978 -0.0092,-0.399356 0.0821,-0.553599 0.538453,-0.599134 1.259348,-0.145275 2.482227,-0.490128 3.604769,-1.107497 3.258022,-1.779267 4.572072,-4.7025 4.88235,-8.206732 0.04574,-0.535663 -0.0091,-1.089561 -0.574921,-1.370744 z M 27.021321,42.391336 c -4.873283,-3.830851 -7.236838,-5.092889 -8.213408,-5.038386 -0.912601,0.0545 -0.748295,1.098529 -0.54762,1.779468 0.209941,0.671671 0.483751,1.134797 0.866966,1.724764 0.264643,0.390389 0.447283,0.971289 -0.264544,1.407213 -1.569726,0.971389 -4.298461,-0.326918 -4.426299,-0.390388 -3.17572,-1.870239 -5.8314189,-4.339613 -7.7023555,-7.716505 -1.8069677,-3.25025 -2.8563741,-6.736149 -3.029847,-10.458293 -0.045635,-0.898651 0.2190083,-1.216602 1.1133751,-1.379812 1.1772443,-0.217912 2.3910563,-0.263448 3.5683005,-0.09097 4.9738189,0.726374 9.2082119,2.950534 12.7581789,6.4729 2.025976,2.006248 3.559133,4.403083 5.138026,6.745216 1.67913,2.487308 3.486097,4.856942 5.785884,6.799619 0.812164,0.680839 1.460121,1.198269 2.080678,1.57969 -1.870737,0.208745 -4.991954,0.25428 -7.127434,-1.434515 z M 29.357576,27.36685 c 0,-0.399456 0.319445,-0.717107 0.721093,-0.717107 0.09127,0 0.173373,0.01794 0.246409,0.04514 0.100437,0.03647 0.191707,0.09097 0.264644,0.172476 0.127837,0.12724 0.200774,0.308684 0.200774,0.499395 0,0.399456 -0.319346,0.717107 -0.720795,0.717107 -0.401448,0 -0.711926,-0.317651 -0.711926,-0.717107 z m 7.255272,3.722145 c -0.465418,0.19071 -0.930835,0.35392 -1.378019,0.372154 -0.693592,0.03627 -1.451054,-0.245213 -1.86167,-0.590166 -0.63879,-0.535664 -1.095141,-0.835081 -1.286748,-1.770201 -0.0822,-0.399456 -0.03657,-1.016824 0.03657,-1.370745 0.164206,-0.762643 -0.01833,-1.252771 -0.556688,-1.697762 -0.438116,-0.363187 -0.994804,-0.462927 -1.606293,-0.462927 -0.228175,0 -0.437917,-0.09994 -0.593156,-0.181643 -0.255576,-0.127041 -0.465318,-0.444792 -0.264643,-0.835181 0.06387,-0.126941 0.374247,-0.435725 0.447283,-0.490128 0.830498,-0.472193 1.788734,-0.317751 2.673934,0.03627 0.82143,0.335886 1.441987,0.953254 2.336254,1.824704 0.912601,1.052993 1.076807,1.343742 1.597027,2.133387 0.410815,0.617368 0.784962,1.252772 1.040439,1.979146 0.155139,0.453959 -0.04564,0.826113 -0.584089,1.053093 z"
     id="path1"
     style="stroke-width:0.996398" />
</svg>
