<?xml version="1.0" encoding="UTF-8" standalone="no"?>
<!-- https://www.iconfinder.com/icons/5296514/bird_tweet_twitter_twitter_logo_icon -->

<!-- https://www.iconfinder.com/icons/7625315/stone_space_astronomy_universe_galaxy_icon -->

<!-- https://www.iconfinder.com/icons/9652775/boat_holiday_sail_sailboat_sea_icon -->

<!-- https://www.iconfinder.com/icons/2189595/branch_easter_ecology_green_leaf_nature_spring_icon -->

<svg
   viewBox="0 0 202 56"
   version="1.1"
   id="svg78"
   sodipodi:docname="jingwei.logo.svg"
   inkscape:version="1.2.2 (b0a8486541, 2022-12-01)"
   width="202"
   height="56"
   xmlns:inkscape="http://www.inkscape.org/namespaces/inkscape"
   xmlns:sodipodi="http://sodipodi.sourceforge.net/DTD/sodipodi-0.dtd"
   xmlns="http://www.w3.org/2000/svg"
   xmlns:svg="http://www.w3.org/2000/svg">
  <defs
     id="defs82" />
  <sodipodi:namedview
     id="namedview80"
     pagecolor="#ffffff"
     bordercolor="#111111"
     borderopacity="1"
     inkscape:showpageshadow="0"
     inkscape:pageopacity="0"
     inkscape:pagecheckerboard="1"
     inkscape:deskcolor="#d1d1d1"
     showgrid="false"
     inkscape:zoom="3.3880187"
     inkscape:cx="136.51046"
     inkscape:cy="54.456606"
     inkscape:window-width="1920"
     inkscape:window-height="1052"
     inkscape:window-x="0"
     inkscape:window-y="28"
     inkscape:window-maximized="1"
     inkscape:current-layer="g8696" />
  <g
     id="g559"
     transform="translate(1.2367328)">
    <g
       id="a"
       transform="translate(-3.985,-3.7842177)" />
    <g
       id="b"
       transform="translate(-3.985,-3.7842177)" />
    <g
       id="c"
       transform="translate(-3.985,-3.7842177)" />
    <g
       id="d"
       transform="translate(-3.985,-3.7842177)" />
    <g
       id="e"
       transform="translate(-3.985,-3.7842177)" />
    <g
       id="f"
       transform="translate(-3.985,-3.7842177)" />
    <g
       id="g"
       transform="translate(-3.985,-3.7842177)" />
    <g
       id="h"
       transform="translate(-3.985,-3.7842177)" />
    <g
       id="i"
       transform="translate(-3.985,-3.7842177)" />
    <g
       id="j"
       transform="translate(-3.985,-3.7842177)" />
    <g
       id="k"
       transform="translate(-3.985,-3.7842177)" />
    <g
       id="l"
       transform="translate(-3.985,-3.7842177)" />
    <g
       id="m"
       transform="translate(-3.985,-3.7842177)" />
    <g
       id="o"
       transform="translate(-3.985,-3.7842177)" />
    <g
       id="p"
       transform="translate(-3.985,-3.7842177)" />
    <g
       id="q"
       transform="translate(-3.985,-3.7842177)" />
    <g
       id="r"
       transform="translate(-3.985,-3.7842177)" />
    <g
       id="s"
       transform="translate(-3.985,-3.7842177)" />
    <g
       id="t"
       transform="translate(-3.985,-3.7842177)" />
    <g
       id="u"
       transform="translate(-3.985,-3.7842177)" />
    <g
       id="v"
       transform="translate(-3.985,-3.7842177)" />
    <g
       id="w"
       transform="translate(-3.985,-3.7842177)" />
    <g
       id="x"
       transform="translate(-3.985,-3.7842177)" />
    <g
       id="y"
       transform="translate(-3.985,-3.7842177)" />
    <g
       id="a`"
       transform="translate(-3.985,-3.7842177)" />
    <g
       id="aa"
       transform="translate(-3.985,-3.7842177)" />
    <g
       id="ab"
       transform="translate(-3.985,-3.7842177)" />
    <g
       id="ac"
       transform="translate(-3.985,-3.7842177)" />
    <g
       id="ad"
       transform="translate(-3.985,-3.7842177)" />
    <g
       id="ae"
       transform="translate(-3.985,-3.7842177)" />
    <g
       id="af"
       transform="translate(-3.985,-3.7842177)" />
    <g
       id="ag"
       transform="translate(-3.985,-3.7842177)" />
    <g
       id="ah"
       transform="translate(-3.985,-3.7842177)" />
    <g
       id="ai"
       transform="translate(-3.985,-3.7842177)" />
    <g
       id="aj"
       transform="translate(-3.985,-3.7842177)" />
    <g
       id="ak"
       transform="translate(-3.985,-3.7842177)" />
    <g
       id="al"
       transform="translate(-3.985,-3.7842177)" />
    <g
       id="am"
       transform="translate(-3.985,-3.7842177)" />
    <g
       id="an"
       transform="translate(-3.985,-3.7842177)" />
    <g
       id="ao"
       transform="translate(-3.985,-3.7842177)" />
    <g
       id="ap"
       transform="translate(-3.985,-3.7842177)" />
    <g
       id="aq"
       transform="translate(-3.985,-3.7842177)" />
    <g
       id="ar"
       transform="translate(-3.985,-3.7842177)" />
    <g
       id="as"
       transform="translate(-3.985,-3.7842177)" />
    <g
       id="at"
       transform="translate(-3.985,-3.7842177)" />
    <g
       id="au"
       transform="translate(-3.985,-3.7842177)" />
    <g
       id="av"
       transform="translate(-3.985,-3.7842177)" />
    <g
       id="aw"
       transform="translate(-3.985,-3.7842177)" />
    <g
       id="ax"
       transform="translate(-3.985,-3.7842177)" />
    <g
       id="g3031"
       transform="translate(-3.985,-3.7842177)">
      <path
         d="m 59,46.28 v -4.46 c 0,-1.73 -1.94,-2.75 -3.68,-1.55 -1.73,1.2 -4.42,1.2 -6.45,-0.21 -2.03,-1.41 -4.72,-1.41 -6.75,0 -2.03,1.41 -4.72,1.41 -6.75,0 -1.02,-0.7 -2.2,-1.06 -3.38,-1.06 -1.18,0 -2.36,0.35 -3.38,1.06 -2.03,1.41 -4.72,1.41 -6.75,0 -1.02,-0.7 -2.2,-1.05 -3.38,-1.05 -1.18,0 -2.36,0.35 -3.38,1.05 -2.03,1.41 -4.72,1.41 -6.45,0.21 -1.73,-1.2 -3.68,-0.18 -3.68,1.55 v 4.46 z"
         fill="#62d9fa"
         fill-rule="evenodd"
         id="path15" />
      <path
         d="M 24.25,45.49 22.07,39.01 C 21.72,37.96 20.8,37.19 19.7,37.03 l -6.68,-0.99 -2.16,5.7 5.88,5.99 z"
         fill="#f0bdb0"
         fill-rule="evenodd"
         id="path21" />
      <path
         d="M 6.27,27.89 C 5.59,27.91 5,28.46 5,29.19 v 17.1 l 7.22,1.27 2.9,-3.02 -3.23,-12.99 C 11.61,30.44 10.9,29.49 9.82,29.1 L 6.73,27.98 C 6.57,27.92 6.41,27.9 6.26,27.9 Z"
         fill="#ffded4"
         fill-rule="evenodd"
         id="path23" />
      <g
         id="g1002"
         transform="matrix(0.21858785,0,0,0.21858785,40.225819,39.472623)">
        <path
           class="cls-1"
           d="m 21.71,16.45 c 1.8,4.58 -0.91,10 -4.76,11.47 -1.92,0.76 -3.38,-1.11 -5.24,-2.11 -1.86,-1 -4.09,-1.13 -5,-3.42 -1.8,-4.57 -0.14,-9.51 3.71,-11 a 9.17,9.17 0 0 1 11.28,5.08 z"
           id="path2278-2"
           style="fill:#e6e5e1" />
        <path
           class="cls-2"
           d="m 13.56,10.88 a 7.55,7.55 0 0 0 -3,0.45 9,9 0 0 1 5.69,5.12 9.36,9.36 0 0 1 -2.93,10.39 c 1.18,0.85 2.3,1.61 3.65,1.08 3.84,-1.51 6.56,-6.89 4.75,-11.47 a 9.24,9.24 0 0 0 -8.15,-5.57 z"
           id="path4161"
           style="fill:#cac7c1" />
        <path
           class="cls-2"
           d="m 8.38,18.55 a 5.81,5.81 0 0 0 -2.36,0.5 v 0 a 10.46,10.46 0 0 0 0.71,3.32 c 0.9,2.29 3.14,2.42 5,3.42 A 15.75,15.75 0 0 1 13.5,27 5.77,5.77 0 0 0 8.38,18.57 Z"
           id="path2426-5"
           style="fill:#cac7c1" />
        <path
           class="cls-3"
           d="m 13.72,26.49 -0.41,0.35 0.19,0.14 a 5.27,5.27 0 0 0 0.22,-0.49 z"
           id="path4153"
           style="fill:#a6a299" />
        <path
           class="cls-4"
           d="m 17.22,10.7 a 9.59,9.59 0 0 0 -7.16,-0.26 c -4.35,1.71 -6.27,7.24 -4.27,12.32 0.81,2.06 2.49,2.71 4,3.28 a 13.45,13.45 0 0 1 1.48,0.65 c 1.49,0.8 2.93,2.41 4.81,2.41 A 3.33,3.33 0 0 0 17.35,28.85 10.16,10.16 0 0 0 22.67,16.09 9.79,9.79 0 0 0 17.22,10.7 Z M 10.49,24.18 C 9,23.62 8.12,23.21 7.65,22 a 10.11,10.11 0 0 1 -0.58,-2.27 4.78,4.78 0 0 1 1.31,-0.21 4.78,4.78 0 0 1 4.77,4.77 5.18,5.18 0 0 1 -0.15,1.14 8.7,8.7 0 0 0 -0.83,-0.5 15.5,15.5 0 0 0 -1.68,-0.75 z m 6.1,2.82 a 2,2 0 0 1 -1.85,-0.38 6.62,6.62 0 0 0 0.41,-2.29 6.78,6.78 0 0 0 -6.77,-6.77 6.6,6.6 0 0 0 -1.33,0.14 6.32,6.32 0 0 1 3.74,-5.39 6.41,6.41 0 0 1 2.38,-0.43 8.53,8.53 0 0 1 3.28,0.68 7.76,7.76 0 0 1 4.33,4.27 A 8.19,8.19 0 0 1 16.59,27 Z"
           id="path742"
           style="fill:#16244d" />
        <path
           class="cls-4"
           d="m 16.57,16.53 a 1.6,1.6 0 1 0 0.53,2.19 1.6,1.6 0 0 0 -0.53,-2.19 z"
           id="path752"
           style="fill:#16244d" />
      </g>
      <path
         d="m 32,43.47 c -1.18,0 -2.36,0.35 -3.38,1.06 -2.03,1.41 -4.72,1.41 -6.75,0 -1.02,-0.7 -2.2,-1.05 -3.38,-1.05 -1.18,0 -2.36,0.35 -3.38,1.05 -2.03,1.41 -4.72,1.41 -6.45,0.21 -1.73,-1.2 -3.68,-0.18 -3.68,1.55 v 4.46 l 28.1,1.43 25.9,-1.43 v -4.46 c 0,-1.73 -1.94,-2.75 -3.68,-1.55 -1.73,1.2 -4.42,1.2 -6.45,-0.21 -2.03,-1.41 -4.72,-1.41 -6.75,0 -2.03,1.41 -4.72,1.41 -6.75,0 -1.02,-0.7 -2.2,-1.06 -3.38,-1.06 z"
         fill="#0acffb"
         fill-rule="evenodd"
         id="path29" />
      <path
         d="m 32,47.93 c -1.18,0 -2.36,0.35 -3.38,1.06 -2.03,1.41 -4.72,1.41 -6.75,0 -1.02,-0.7 -2.2,-1.05 -3.38,-1.05 -1.18,0 -2.36,0.35 -3.38,1.05 C 13.08,50.4 10.39,50.4 8.66,49.2 6.93,48 4.98,49.02 4.98,50.75 v 1.48 c 0,1.77 1.43,3.2 3.2,3.2 H 55.8 c 1.77,0 3.2,-1.43 3.2,-3.2 V 50.75 C 59,49.02 57.06,48 55.32,49.2 c -1.73,1.2 -4.42,1.2 -6.45,-0.21 -2.03,-1.41 -4.72,-1.41 -6.75,0 -2.03,1.41 -4.72,1.41 -6.75,0 -1.02,-0.7 -2.2,-1.06 -3.38,-1.06 z"
         fill="#62d9fa"
         fill-rule="evenodd"
         id="path31" />
      <g
         id="g2500"
         transform="matrix(0.16691165,0,0,0.16691165,33.491844,22.807934)">
        <path
           class="cls-1"
           d="m 19.54,46.59 a 8.55,8.55 0 0 1 3.1,11.09 c -1,1.66 -3.11,1.13 -5,1.46 C 15.75,59.47 14,60.66 12,59.51 8.07,57.21 6.45,52.65 8.39,49.34 a 8.51,8.51 0 0 1 11.14,-2.75 z"
           id="use2336-7"
           style="fill:#e6e5e1" />
        <path
           class="cls-2"
           d="m 15.61,45.54 a 8.92,8.92 0 0 0 -2.82,0.47 8.13,8.13 0 0 1 1.28,0.58 8.56,8.56 0 0 1 3.1,11.09 c -1,1.66 -3.11,1.13 -5,1.46 l -0.51,0.12 0.39,0.25 c 2,1.15 3.67,0 5.6,-0.37 1.93,-0.37 4.07,0.2 5,-1.46 a 8.55,8.55 0 0 0 -3.1,-11.09 7.83,7.83 0 0 0 -3.94,-1.05 z"
           id="path4165"
           style="fill:#cac7c1" />
        <path
           class="cls-2"
           d="m 15.61,45.54 a 9.07,9.07 0 0 0 -3.66,0.78 5.36,5.36 0 0 0 9.66,2 7.74,7.74 0 0 0 -2.07,-1.78 7.83,7.83 0 0 0 -3.93,-1.05 z"
           id="path2351-6"
           style="fill:#cac7c1" />
        <path
           class="cls-3"
           d="m 15.61,45.54 a 9,9 0 0 0 -2.84,0.46 7.55,7.55 0 0 1 1.3,0.59 8,8 0 0 1 3.38,4 5.35,5.35 0 0 0 4.16,-2.27 7.74,7.74 0 0 0 -2.07,-1.78 7.83,7.83 0 0 0 -3.93,-1.05 z"
           id="path4157"
           style="fill:#a6a299" />
        <path
           class="cls-4"
           d="m 13.79,61 a 8.75,8.75 0 0 0 2.55,-0.5 12.22,12.22 0 0 1 1.44,-0.37 10.47,10.47 0 0 1 1.51,-0.13 c 1.52,-0.07 3.24,-0.15 4.22,-1.81 A 9,9 0 0 0 24.27,51.51 9.21,9.21 0 0 0 20.05,45.73 9.1,9.1 0 0 0 13,44.9 9,9 0 0 0 7.57,48.84 c -2.21,3.78 -0.43,8.95 4,11.53 A 4.39,4.39 0 0 0 13.79,61 Z m 1.79,-14.46 a 6.88,6.88 0 0 1 3.46,0.91 6.26,6.26 0 0 1 1.23,0.94 4.34,4.34 0 0 1 -7.1,-1.46 l 0.32,-0.11 a 8,8 0 0 1 2.09,-0.28 z m -6.32,3.31 a 6.26,6.26 0 0 1 2.1,-2.09 6.34,6.34 0 0 0 10.15,2.24 8.23,8.23 0 0 1 0.82,2 7.07,7.07 0 0 1 -0.55,5.18 c -0.4,0.69 -1.2,0.76 -2.58,0.82 a 15.49,15.49 0 0 0 -1.76,0.15 15.21,15.21 0 0 0 -1.68,0.44 C 14.4,59 13.51,59.23 12.51,58.65 9.06,56.62 7.6,52.68 9.26,49.85 Z"
           id="path2315"
           style="fill:#16244d" />
        <path
           class="cls-4"
           d="m 17.83,56.56 a 1.6,1.6 0 1 0 -0.53,-2.19 1.6,1.6 0 0 0 0.53,2.19 z"
           id="path2327"
           style="fill:#16244d" />
      </g>
    </g>
    <g
       id="g472">
      <path
         d="m 25.84521,15.833066 c 0,0 -0.261359,-0.58027 -0.283965,-0.864691 -0.01761,-0.221514 0.02911,-0.435686 0.119212,-0.609345 0.09368,-0.180568 0.244122,-0.325533 0.421596,-0.417832 0.07937,-0.04127 0.274925,-0.05416 0.274925,-0.05416 0,0 0.01526,0.163367 0.02746,0.245672 0.0318,0.214614 0.135437,0.442674 0.119046,0.646101 -0.01125,0.139548 -0.08341,0.252454 -0.146671,0.363671 -0.145816,0.256329 -0.531601,0.690586 -0.531601,0.690586 z"
         id="path6489"
         style="fill:#8ba753;fill-opacity:1;fill-rule:evenodd;stroke:none;stroke-width:0.214557px;stroke-linecap:round;stroke-linejoin:round;stroke-opacity:1" />
      <path
         d="m 28.417772,15.335497 c 0,0 0.360896,-0.221305 0.586518,-0.199239 0.249158,0.02437 0.499128,0.221035 0.742229,0.35594 0.240682,0.133483 0.705562,0.446861 0.705562,0.446861 0,0 -0.684164,0.239074 -0.962237,0.189565 -0.484922,-0.08632 -0.782582,-0.342578 -1.072072,-0.793127 z"
         id="path6485"
         style="fill:#8ba753;fill-opacity:1;fill-rule:evenodd;stroke:none;stroke-width:0.214557px;stroke-linecap:round;stroke-linejoin:round;stroke-opacity:1" />
      <path
         d="m 26.168645,15.440223 c -0.139869,0.07149 -0.268173,0.147629 -0.393864,0.221443 0.0271,0.06445 0.07037,0.171212 0.07037,0.171212 0,0 0.167415,-0.190533 0.323491,-0.392656 z"
         id="path42550"
         style="color:#000000;font-style:normal;font-variant:normal;font-weight:normal;font-stretch:normal;font-size:medium;line-height:normal;font-family:sans-serif;text-indent:0;text-align:start;text-decoration:none;text-decoration-line:none;text-decoration-style:solid;text-decoration-color:#000000;letter-spacing:normal;word-spacing:normal;text-transform:none;writing-mode:lr-tb;direction:ltr;baseline-shift:baseline;text-anchor:start;white-space:normal;clip-rule:nonzero;display:inline;overflow:visible;visibility:visible;isolation:auto;mix-blend-mode:normal;color-interpolation:sRGB;color-interpolation-filters:linearRGB;solid-color:#000000;solid-opacity:1;fill:#839d51;fill-opacity:1;fill-rule:evenodd;stroke:none;stroke-width:0.214557px;stroke-linecap:round;stroke-linejoin:round;stroke-miterlimit:4;stroke-dasharray:none;stroke-dashoffset:0;stroke-opacity:1;color-rendering:auto;image-rendering:auto;shape-rendering:auto;text-rendering:auto;enable-background:accumulate" />
      <path
         d="m 28.652073,15.218242 c -0.130061,0.05541 -0.23424,0.117417 -0.23424,0.117417 0.06321,0.09837 0.127066,0.185666 0.192918,0.265768 0.09095,7.48e-4 0.154339,-0.06187 0.161847,-0.141415 0.0074,-0.07802 -0.03857,-0.178457 -0.120525,-0.24177 z"
         id="path42554"
         style="color:#000000;font-style:normal;font-variant:normal;font-weight:normal;font-stretch:normal;font-size:medium;line-height:normal;font-family:sans-serif;text-indent:0;text-align:start;text-decoration:none;text-decoration-line:none;text-decoration-style:solid;text-decoration-color:#000000;letter-spacing:normal;word-spacing:normal;text-transform:none;writing-mode:lr-tb;direction:ltr;baseline-shift:baseline;text-anchor:start;white-space:normal;clip-rule:nonzero;display:inline;overflow:visible;visibility:visible;isolation:auto;mix-blend-mode:normal;color-interpolation:sRGB;color-interpolation-filters:linearRGB;solid-color:#000000;solid-opacity:1;fill:#839d51;fill-opacity:1;fill-rule:evenodd;stroke:none;stroke-width:0.214557px;stroke-linecap:round;stroke-linejoin:round;stroke-miterlimit:4;stroke-dasharray:none;stroke-dashoffset:0;stroke-opacity:1;color-rendering:auto;image-rendering:auto;shape-rendering:auto;text-rendering:auto;enable-background:accumulate" />
      <path
         d="m 27.293169,15.380424 c 0,0 -0.05923,-0.705306 0.02763,-1.009771 0.06474,-0.226932 0.166225,-0.458786 0.357469,-0.572587 0.21123,-0.12571 0.788107,-0.07157 0.788107,-0.07157 0,0 -0.05564,0.11732 -0.07334,0.181834 -0.04514,0.164468 -0.023,0.36217 -0.08255,0.518425 -0.07105,0.18641 -0.186898,0.346388 -0.3208,0.481671 -0.196893,0.198912 -0.696522,0.471994 -0.696522,0.471994 z"
         id="path6487"
         style="fill:#88b03c;fill-opacity:1;fill-rule:evenodd;stroke:none;stroke-width:0.214557px;stroke-linecap:round;stroke-linejoin:round;stroke-opacity:1" />
      <path
         d="m 26.622081,15.512633 c 0,0 0.557151,0.666981 0.89794,0.911125 0.194117,0.13915 0.415405,0.273366 0.625212,0.2953 0.275504,0.0288 0.72398,-0.226324 0.72398,-0.226324 0,0 -0.136601,-0.08036 -0.201589,-0.127674 -0.197513,-0.144266 -0.363228,-0.345762 -0.5681,-0.473941 -0.16741,-0.10374 -0.347119,-0.178756 -0.524417,-0.231462 -0.319655,-0.09497 -0.953026,-0.147025 -0.953026,-0.147024 z"
         id="path6491"
         style="fill:#88b03c;fill-opacity:1;fill-rule:evenodd;stroke:none;stroke-width:0.214557px;stroke-linecap:round;stroke-linejoin:round;stroke-opacity:1" />
      <path
         d="m 27.328768,15.605088 c -0.321993,-0.05946 -0.706715,-0.09264 -0.706715,-0.09264 0,0 0.107731,0.121352 0.174342,0.19782 0.170393,-0.04692 0.347846,-0.08234 0.532373,-0.10518 z"
         id="path42543"
         style="color:#000000;font-style:normal;font-variant:normal;font-weight:normal;font-stretch:normal;font-size:medium;line-height:normal;font-family:sans-serif;text-indent:0;text-align:start;text-decoration:none;text-decoration-line:none;text-decoration-style:solid;text-decoration-color:#000000;letter-spacing:normal;word-spacing:normal;text-transform:none;writing-mode:lr-tb;direction:ltr;baseline-shift:baseline;text-anchor:start;white-space:normal;clip-rule:nonzero;display:inline;overflow:visible;visibility:visible;isolation:auto;mix-blend-mode:normal;color-interpolation:sRGB;color-interpolation-filters:linearRGB;solid-color:#000000;solid-opacity:1;fill:#81a53c;fill-opacity:1;fill-rule:evenodd;stroke:none;stroke-width:0.214557px;stroke-linecap:round;stroke-linejoin:round;stroke-miterlimit:4;stroke-dasharray:none;stroke-dashoffset:0;stroke-opacity:1;color-rendering:auto;image-rendering:auto;shape-rendering:auto;text-rendering:auto;enable-background:accumulate" />
      <path
         d="m 27.714855,15.120975 c -0.14468,0.0061 -0.288912,0.01612 -0.432726,0.03095 0.005,0.09296 0.01111,0.228659 0.01111,0.228659 0,0 0.217008,-0.121527 0.421614,-0.259608 z"
         id="path42552"
         style="color:#000000;font-style:normal;font-variant:normal;font-weight:normal;font-stretch:normal;font-size:medium;line-height:normal;font-family:sans-serif;text-indent:0;text-align:start;text-decoration:none;text-decoration-line:none;text-decoration-style:solid;text-decoration-color:#000000;letter-spacing:normal;word-spacing:normal;text-transform:none;writing-mode:lr-tb;direction:ltr;baseline-shift:baseline;text-anchor:start;white-space:normal;clip-rule:nonzero;display:inline;overflow:visible;visibility:visible;isolation:auto;mix-blend-mode:normal;color-interpolation:sRGB;color-interpolation-filters:linearRGB;solid-color:#000000;solid-opacity:1;fill:#81a53c;fill-opacity:1;fill-rule:evenodd;stroke:none;stroke-width:0.214557px;stroke-linecap:round;stroke-linejoin:round;stroke-miterlimit:4;stroke-dasharray:none;stroke-dashoffset:0;stroke-opacity:1;color-rendering:auto;image-rendering:auto;shape-rendering:auto;text-rendering:auto;enable-background:accumulate" />
      <path
         d="m 13.371441,11.264811 c 1.789506,4.916623 6.841667,6.12323 10.374109,4.837526 0.115684,-0.04211 0.230859,-0.08402 0.342679,-0.133578 0.568838,0.385415 1.201722,0.666503 1.86908,0.830032 -0.393738,-0.40917 -0.723861,-0.875152 -0.979386,-1.382264 0.537032,0.436352 1.214796,0.662836 1.90628,0.637064 -0.502321,-0.411376 -0.93074,-0.905618 -1.266663,-1.461248 0.35351,-0.701058 0.401719,-1.518028 0.133203,-2.255771 -0.534254,-1.46785 -2.18169,-2.236042 -3.649492,-1.701806 -0.203628,0.07412 -0.398157,0.171255 -0.579748,0.289453 -0.674215,-2.1873957 -0.387604,-4.5615117 0.787714,-6.5257167 -1.47128,-0.2634606 -2.912332,0.67444 -3.267153,2.126379 -0.142218,-0.429937 -0.178942,-0.887925 -0.107007,-1.335029 l -0.03386,0.01232 c -1.267508,0.461736 -2.041117,1.76443 -1.839856,3.098323 -0.25054,-0.35446 -0.416529,-0.761738 -0.485163,-1.190303 -0.959077,0.744667 -1.341184,2.024491 -0.947403,3.1730667 -1.088203,-0.6756827 -1.917953,-1.6983737 -2.354863,-2.9024937 -0.077,-0.212836 -0.141461,-0.43001 -0.193025,-0.650377 -0.339519,1.507839 -0.237905,3.081977 0.292652,4.5336527"
         style="clip-rule:evenodd;fill:#1da1f2;fill-rule:nonzero;stroke-width:0.0270805;stroke-linejoin:round;stroke-miterlimit:2"
         id="path594" />
      <path
         d="m 24.287245,16.558462 c -0.208467,-0.0551 -0.342621,-0.376038 -0.393968,-0.591939 -0.05356,-0.225222 0.01331,-0.447927 0.119213,-0.609343 0.162157,-0.247165 0.359249,-0.342219 0.659854,-0.381075 0,0 -9.53e-4,0.163278 0.02746,0.245673 0.130562,0.378543 0.209697,0.694839 0.109835,0.98269 -0.07253,0.209078 -0.296279,0.413719 -0.522392,0.353995 z"
         id="path6495"
         style="fill:#88b03c;fill-opacity:1;fill-rule:evenodd;stroke:none;stroke-width:0.214557px;stroke-linecap:round;stroke-linejoin:round;stroke-opacity:1" />
      <path
         d="m 25.195581,16.373225 c 0,0 0.444456,0.481285 0.712018,0.633278 0.208413,0.118294 0.43989,0.182126 0.652212,0.192274 0.220776,0.01067 0.433451,-0.04078 0.60735,-0.13845 0.07777,-0.04368 0.182517,-0.193157 0.182517,-0.193157 0,0 -0.152612,-0.08912 -0.227365,-0.137603 -0.194941,-0.126432 -0.369201,-0.316284 -0.575906,-0.3991 -0.141801,-0.05683 -0.286255,-0.05266 -0.424841,-0.05469 -0.319431,-0.0048 -0.925978,0.09743 -0.925978,0.09743 z"
         id="path6493"
         style="fill:#8ba753;fill-opacity:1;fill-rule:evenodd;stroke:none;stroke-width:0.214557px;stroke-linecap:round;stroke-linejoin:round;stroke-opacity:1" />
      <path
         d="m 25.652623,16.310259 c -0.24062,0.02827 -0.456968,0.06286 -0.456968,0.06286 0,0 0.0853,0.08552 0.13722,0.139078 0.112657,-0.06491 0.217286,-0.133922 0.319748,-0.20194 z"
         id="path42546"
         style="color:#000000;font-style:normal;font-variant:normal;font-weight:normal;font-stretch:normal;font-size:medium;line-height:normal;font-family:sans-serif;text-indent:0;text-align:start;text-decoration:none;text-decoration-line:none;text-decoration-style:solid;text-decoration-color:#000000;letter-spacing:normal;word-spacing:normal;text-transform:none;writing-mode:lr-tb;direction:ltr;baseline-shift:baseline;text-anchor:start;white-space:normal;clip-rule:nonzero;display:inline;overflow:visible;visibility:visible;isolation:auto;mix-blend-mode:normal;color-interpolation:sRGB;color-interpolation-filters:linearRGB;solid-color:#000000;solid-opacity:1;fill:#839d51;fill-opacity:1;fill-rule:evenodd;stroke:none;stroke-width:0.214557px;stroke-linecap:round;stroke-linejoin:round;stroke-miterlimit:4;stroke-dasharray:none;stroke-dashoffset:0;stroke-opacity:1;color-rendering:auto;image-rendering:auto;shape-rendering:auto;text-rendering:auto;enable-background:accumulate" />
      <path
         d="m 24.795279,16.236824 c -0.218784,0.09204 -0.444568,0.166026 -0.678249,0.204538 0.04981,0.05644 0.10616,0.100268 0.170271,0.117201 0.214325,0.05658 0.42467,-0.124671 0.507979,-0.321741 z"
         id="path42548"
         style="color:#000000;font-style:normal;font-variant:normal;font-weight:normal;font-stretch:normal;font-size:medium;line-height:normal;font-family:sans-serif;text-indent:0;text-align:start;text-decoration:none;text-decoration-line:none;text-decoration-style:solid;text-decoration-color:#000000;letter-spacing:normal;word-spacing:normal;text-transform:none;writing-mode:lr-tb;direction:ltr;baseline-shift:baseline;text-anchor:start;white-space:normal;clip-rule:nonzero;display:inline;overflow:visible;visibility:visible;isolation:auto;mix-blend-mode:normal;color-interpolation:sRGB;color-interpolation-filters:linearRGB;solid-color:#000000;solid-opacity:1;fill:#81a53c;fill-opacity:1;fill-rule:evenodd;stroke:none;stroke-width:0.214557px;stroke-linecap:round;stroke-linejoin:round;stroke-miterlimit:4;stroke-dasharray:none;stroke-dashoffset:0;stroke-opacity:1;color-rendering:auto;image-rendering:auto;shape-rendering:auto;text-rendering:auto;enable-background:accumulate" />
      <path
         d="m 28.59223,15.289391 a 0.12272116,0.09379809 48.838315 0 0 -0.04987,-0.01734 c 0,0 -0.409369,-0.05325 -0.629026,-0.04745 -0.46496,0.01228 -0.933061,0.05194 -1.36102,0.183699 -0.307768,0.09475 -0.556421,0.273021 -0.811925,0.41463 -0.292513,0.162116 -0.540163,0.370329 -0.82776,0.49557 -0.265542,0.115623 -0.544033,0.210623 -0.83901,0.247647 -0.33241,0.04171 -1.106004,-0.02937 -1.106004,-0.02937 a 0.12272116,0.09379809 48.838315 1 0 0.03682,0.221309 c 0,0 0.761268,0.07745 1.148216,0.0289 0.318171,-0.03993 0.610527,-0.140421 0.883803,-0.25941 0.314112,-0.136787 0.564653,-0.349499 0.840363,-0.502302 0.26516,-0.146961 0.506177,-0.31689 0.782601,-0.401988 0.405161,-0.124742 0.857513,-0.164183 1.31501,-0.176272 0.180142,-0.0048 0.59863,0.04559 0.59863,0.04559 a 0.12272116,0.09379809 48.838315 0 0 0.01918,-0.203235 z"
         id="path6483"
         style="color:#000000;font-style:normal;font-variant:normal;font-weight:normal;font-stretch:normal;font-size:medium;line-height:normal;font-family:sans-serif;text-indent:0;text-align:start;text-decoration:none;text-decoration-line:none;text-decoration-style:solid;text-decoration-color:#000000;letter-spacing:normal;word-spacing:normal;text-transform:none;writing-mode:lr-tb;direction:ltr;baseline-shift:baseline;text-anchor:start;white-space:normal;clip-rule:nonzero;display:inline;overflow:visible;visibility:visible;isolation:auto;mix-blend-mode:normal;color-interpolation:sRGB;color-interpolation-filters:linearRGB;solid-color:#000000;solid-opacity:1;fill:#88b03c;fill-opacity:1;fill-rule:evenodd;stroke:none;stroke-width:0.214557px;stroke-linecap:round;stroke-linejoin:round;stroke-miterlimit:4;stroke-dasharray:none;stroke-dashoffset:0;stroke-opacity:1;color-rendering:auto;image-rendering:auto;shape-rendering:auto;text-rendering:auto;enable-background:accumulate" />
      <path
         id="path475"
         style="clip-rule:evenodd;fill:#1da1f2;fill-rule:nonzero;stroke-width:0.0270805;stroke-linejoin:round;stroke-miterlimit:2"
         d="m 26.29701,15.501121 c -0.198587,0.09447 -0.38332,0.202659 -0.570312,0.296875 -0.01869,0.0094 -0.03628,0.01962 -0.05469,0.0293 0.11674,0.0488 0.235274,0.09014 0.357422,0.123047 0.15856,-0.08409 0.312461,-0.169217 0.470703,-0.242188 -0.06905,-0.06768 -0.137646,-0.135978 -0.203125,-0.207031 z" />
    </g>
  </g>
  <g
     id="g8696"
     transform="translate(-1.6685102)">
    <text
       xml:space="preserve"
       style="font-style:normal;font-variant:normal;font-weight:bold;font-stretch:normal;font-size:20px;line-height:1;font-family:'Noto Sans';-inkscape-font-specification:'Noto Sans Bold';fill:#1da1f2;fill-opacity:1"
       x="66.724121"
       y="25.314762"
       id="text372"><tspan
         sodipodi:role="line"
         id="tspan370"
         x="66.724121"
         y="25.314762"
         style="font-style:normal;font-variant:normal;font-weight:bold;font-stretch:normal;font-size:20px;font-family:'Noto Sans';-inkscape-font-specification:'Noto Sans Bold';fill:#1da1f2;fill-opacity:1">精卫 (JingWei)</tspan></text>
    <text
       xml:space="preserve"
       style="font-size:10px;line-height:1.25;font-family:sans-serif;fill:#274d74;fill-opacity:1"
       x="66.854118"
       y="45.42524"
       id="text662"><tspan
         sodipodi:role="line"
         id="tspan660"
         x="66.854118"
         y="45.42524"
         style="font-style:normal;font-variant:normal;font-weight:bold;font-stretch:normal;font-size:10px;font-family:'DejaVu Serif';-inkscape-font-specification:'DejaVu Serif Bold';fill:#274d74;fill-opacity:1">衔木石填沧海，筑屏障护安全</tspan></text>
  </g>
</svg>
