<?xml version="1.0" encoding="UTF-8" standalone="no"?>
<!-- https://commons.wikimedia.org/wiki/File:Yin_yang.svg -->

<!-- https://www.iconfinder.com/icons/4179007/hill_landscape_mountain_nature_sun_icon -->

<svg
   viewBox="-40 -40 256 88"
   version="1.1"
   id="svg10"
   sodipodi:docname="pangu-os.logo.svg"
   inkscape:version="1.2.2 (b0a8486541, 2022-12-01)"
   width="256"
   height="88"
   xmlns:inkscape="http://www.inkscape.org/namespaces/inkscape"
   xmlns:sodipodi="http://sodipodi.sourceforge.net/DTD/sodipodi-0.dtd"
   xmlns="http://www.w3.org/2000/svg"
   xmlns:svg="http://www.w3.org/2000/svg">
  <defs
     id="defs14">
    <linearGradient
       id="linearGradient2132"
       inkscape:swatch="solid">
      <stop
         style="stop-color:#000000;stop-opacity:1;"
         offset="0"
         id="stop2130" />
    </linearGradient>
  </defs>
  <sodipodi:namedview
     id="namedview12"
     pagecolor="#ffffff"
     bordercolor="#111111"
     borderopacity="1"
     inkscape:showpageshadow="0"
     inkscape:pageopacity="0"
     inkscape:pagecheckerboard="1"
     inkscape:deskcolor="#d1d1d1"
     showgrid="false"
     inkscape:zoom="3.692008"
     inkscape:cx="133.12539"
     inkscape:cy="55.931623"
     inkscape:window-width="1920"
     inkscape:window-height="1052"
     inkscape:window-x="0"
     inkscape:window-y="28"
     inkscape:window-maximized="1"
     inkscape:current-layer="svg10" />
  <g
     transform="matrix(0.00282579,4.9826335e-4,0,-0.00282579,-16.825762,22.11273)"
     fill="#000000"
     stroke="none"
     id="g496"
     style="fill:#ffffff;fill-opacity:1" />
  <g
     id="g438"
     transform="translate(4.1849968,3.9965045)">
    <g
       id="g358">
      <ellipse
         style="opacity:0.96;fill:#000000;fill-opacity:1;stroke:#000000;stroke-width:1.00004;stroke-dasharray:none;stroke-opacity:1;paint-order:fill markers stroke"
         id="path1400"
         cx="0.11054158"
         cy="0.0034954548"
         rx="38.499981"
         ry="38.499977" />
      <path
         fill="#ffffff"
         d="M 29.905306,23.445099 A 38,38 0 0 1 -29.905306,-23.445099 19,19 0 0 1 0,0 19,19 0 0 0 29.905306,23.445099"
         id="path4" />
      <circle
         r="5"
         cy="-19"
         id="circle8"
         cx="0"
         transform="rotate(-51.904338)"
         style="fill:#ff5b43;fill-opacity:1" />
      <circle
         r="5"
         cy="19"
         fill="#ffffff"
         id="circle6"
         cx="0"
         transform="rotate(-51.904338)"
         style="fill:#ffc152;fill-opacity:1" />
      <g
         id="g315">
        <path
           d="m -5.7026147,-0.32390861 0.044431,0.002297 h 0.00115 l 0.0097,5.9962e-4 0.0097,5.9954e-4 h 0.00107 l 0.032498,0.001169 0.0054,5.6628e-4 h 0.0054 l 0.010815,5.9962e-4 h 0.00317 l 0.00745,5.9962e-4 0.010815,5.9954e-4 h 0.00115 0.0097 l 0.0097,5.9962e-4 v 0 l 0.010815,5.6627e-4 h 0.00858 l 0.00224,5.9963e-4 0.010815,5.9962e-4 h 0.0054 0.0054 l 0.010815,5.9954e-4 h 0.00317 l 0.00745,5.9962e-4 h 0.0097 l 0.00224,5.6627e-4 h 0.00858 l 0.0097,6.3771e-4 h 0.00107 l 0.010815,5.6628e-4 h 0.00745 0.00317 l 0.010814,5.9954e-4 h 0.0054 l 0.00447,5.9962e-4 h 0.010814 l 0.00317,5.9962e-4 h 0.00745 l 0.010815,5.9954e-4 h 0.00115 l 0.0097,5.6627e-4 h 0.00857 0.00115 l 0.010815,5.9962e-4 h 0.00745 0.00336 l 0.010815,5.9963e-4 h 0.00447 l 0.00633,5.9954e-4 h 0.0097 l 0.00317,5.9962e-4 h 0.00745 l 0.010815,5.6627e-4 v 0 h 0.010815 l 0.00745,5.9962e-4 h 0.00224 0.010815 l 0.00652,5.9963e-4 h 0.00447 l 0.010815,5.9954e-4 h 0.00429 0.00652 l 0.0097,5.9962e-4 h 0.00224 0.00858 l 0.010814,5.6627e-4 h 0.010815 l 0.00876,5.9962e-4 h 0.00115 l 0.010815,5.9954e-4 h 0.00652 0.00447 l 0.010814,5.9962e-4 h 0.00447 0.00652 l 0.0097,5.9963e-4 h 0.00317 0.00745 l 0.010815,5.6627e-4 v 0 h 0.010814 l 0.00876,6.3763e-4 h 0.00205 0.010815 0.00652 l 0.00447,5.6635e-4 h 0.0097 0.0054 l 0.0054,5.9954e-4 h 0.011933 0.00115 l 0.0097,5.9962e-4 h 0.0097 0.00224 l 0.011933,5.6628e-4 h 0.0054 0.0054 0.011933 0.00205 l 0.0097,6.3763e-4 h 0.0097 0.00115 l 0.011933,5.6635e-4 h 0.00652 0.00429 l 0.011933,6.3763e-4 h 0.00336 0.00858 0.010815 0.00115 l 0.010815,5.6627e-4 h 0.00745 0.00447 l 0.011896,5.9963e-4 h 0.00321 0.00869 l 0.031439,5.9954e-4 h 0.00321 l 0.011895,5.9962e-4 h 0.00426 0.00747 l 0.022799,5.9962e-4 h 0.00975 0.00229 0.01734 l 0.0064,5.6627e-4 h 0.011896 0.00229 l 0.080072,0.001169 h 0.00115 l 0.036835,5.9954e-4 h 0.00336 0.00854 l 0.032491,5.9962e-4 h 0.00336 l 0.059512,5.6628e-4 h 0.00212 0.012959 l 0.036835,5.9962e-4 h 0.011895 0.00115 0.011895 0.00869 0.00426 l 0.012959,5.9962e-4 h 0.00336 0.00854 0.063932 l 0.012959,5.9954e-4 h 0.00229 0.010814 0.010815 0.00229 0.00747 0.00654 0.00533 c 0.14295,-5.9954e-4 0.2760709,-0.001169 0.4039244,-0.003498 l 0.1006296,-0.001733 -0.00548,-0.003539 -0.041118,-0.0255558 v 0 l -0.041197,-0.0249543 v 0 l -0.041118,-0.0249543 v 0 l -0.041118,-0.025591 v 0 l -0.040066,-0.0249543 h -0.00107 l -0.040066,-0.0249543 -0.00115,-5.9954e-4 -0.040005,-0.0249902 h -0.00107 l -0.040066,-0.0249543 v -5.9954e-4 l -0.040066,-0.0243535 -0.00115,-5.9962e-4 -0.064907,-0.0400829 -0.016221,-0.009862 v -5.6627e-4 l -0.040066,-0.0243895 -0.00115,-5.9962e-4 -0.040005,-0.0249894 -0.00115,-5.6627e-4 -0.038953,-0.0243887 -0.00115,-5.9954e-4 -0.040066,-0.0243535 -0.00115,-0.001169 -0.038953,-0.0243535 -0.00115,-6.3771e-4 -0.040005,-0.0243535 -0.00115,-0.001169 -0.039015,-0.0243535 -0.00115,-5.9954e-4 -0.038953,-0.0243895 -0.00229,-0.001136 -0.038953,-0.0238238 -0.00115,-0.001136 -0.039015,-0.0243894 -0.00229,-0.00117 -0.037825,-0.023788 -0.00229,-0.00117 -0.038953,-0.024353 -0.00115,-0.00117 -0.039015,-0.023824 -0.00229,-0.00117 -0.037825,-0.024353 -0.00229,-0.00117 -0.037825,-0.023824 -0.00212,-0.00114 -0.039015,-0.02439 -0.00229,-0.00117 -0.037901,-0.023788 -0.00224,-0.00114 -0.03783,-0.024425 -0.00205,-0.00114 -0.00876,-0.00584 -0.069322,-0.043512 -0.00224,-0.00114 -0.03783,-0.023823 -0.00224,-0.00177 -0.037906,-0.023222 -0.00224,-0.00173 -0.03783,-0.023823 -0.00317,-0.00173 -0.036843,-0.023824 -0.00354,-0.00201 -0.036843,-0.023823 -0.00317,-0.00173 -0.036843,-0.023222 -0.00317,-0.0023 -0.036768,-0.023222 -0.00317,-0.00177 -0.036842,-0.023824 -0.00317,-0.00173 -0.036843,-0.023187 -0.00317,-0.00177 -0.076911,-0.048778 -0.00317,-0.00233 -0.036768,-0.023187 -0.00336,-0.00177 -0.036768,-0.023222 -0.00317,-0.0023 -0.035724,-0.023222 -0.00447,-0.00173 -0.035724,-0.023258 -0.00447,-0.0023 -0.035724,-0.023222 -0.00317,-0.0023 -0.036842,-0.022657 -0.00317,-0.0023 -0.036768,-0.023222 -0.00336,-0.0023 -0.036768,-0.022657 -0.00317,-0.0029 -0.035724,-0.022693 -0.00447,-0.0023 -0.035724,-0.023222 -0.00429,-0.0023 -0.035724,-0.022657 -0.00447,-0.00233 -0.035724,-0.023187 -0.00447,-0.00233 -0.034606,-0.022657 -0.00447,-0.0029 -0.035724,-0.022657 -0.00447,-0.00233 -0.035724,-0.022657 -0.00429,-0.0029 -0.035724,-0.022657 -0.00447,-0.0029 -0.034606,-0.022056 -0.0054,-0.00293 -0.034587,-0.022622 -0.044413,-0.027889 -0.035724,-0.022658 -0.00447,-0.0029 -0.035724,-0.022657 -0.00447,-0.0029 -0.034606,-0.022056 -0.0054,-0.0029 -1.1292573,-0.7171432 h -0.00115 l -0.630172,0.057438 c -0.0487,0.00584 -0.1007017,-0.00347 -0.1342444,-0.02552 l -1.3263093,-0.9023939 -0.085547,-0.00406 c -0.2014024,0.12601 -0.4092623,0.2549538 -0.6074343,0.3751316 -0.221898,0.1329732 -0.44821,0.26478 -0.672349,0.3861594 -0.06168,0.03312 -0.114742,0.05924 -0.159155,0.08013 0.03895,0.032518 0.0812,0.065072 0.126656,0.098157 0.06386,0.046445 0.1332,0.092289 0.210035,0.1376035 l 0.0088,0.00233 0.522944,0.021456 c 0.03138,0.00173 0.0628,0.00933 0.08659,0.022657 l 0.968981,0.5574483 0.4634344,-0.035417 c 0.040012,-0.0029 0.082318,0.0035 0.1125603,0.019758 0.9148093,0.4871089 1.902243,1.06604627 2.8528358,1.51667764 m -5.2554195,-3.75587274 -0.0022,-0.00176 -0.0012,-0.00119 -0.0011,-0.00172 c -0.0758,-0.076065 -0.147239,-0.1521663 -0.219789,-0.2288326 -0.294457,-0.3129567 -0.586805,-0.6230511 -1.1141,-0.8965616 l -0.110379,-0.057473 c -0.104007,-0.054575 -0.150521,-0.079565 -0.167861,-0.080166 -0.01622,-6.186e-4 -0.0649,0.013962 -0.152629,0.039517 -0.06604,0.019725 -0.149403,0.044679 -0.255506,0.072566 -0.527295,0.1434712 -0.997123,0.2758432 -1.371784,0.4505961 -0.368071,0.1713595 -0.651787,0.3861949 -0.819578,0.6985863 -0.161335,0.3002325 -0.347576,0.5377249 -0.573823,0.7624221 -0.223084,0.221834 -0.486169,0.4332055 -0.801255,0.6823271 -0.113698,0.092325 -0.23923,0.1898809 -0.34316,0.2851394 -0.52189,0.4419008 -0.991784,0.6340793 -1.477891,0.8320898 l -0.0086,0.0035 c -0.325895,0.1330086 -0.659366,0.2683147 -1.018804,0.486614 l -0.0054,0.00406 c -0.242523,0.14753465 -0.424415,0.25901718 -0.574875,0.37513014 -0.120205,0.0929258 -0.224138,0.19221376 -0.331297,0.3205213 l 0.357263,-0.008695 c 0.20028,-0.004062 0.389754,-0.0064 0.573823,-0.0064 1.114102,5.9962e-4 2.221678,0.0237879 3.331494,0.047011 1.35768,0.0278886 2.717536,0.056342 4.083917,0.0424157 l 0.36807,-0.003498 c 0.296699,-0.001766 0.597679,-0.004667 0.891083,-0.0145271 0.548978,-0.0191935 0.9776819,-0.0481774 1.3696101,-0.0748988 0.8348013,-0.0563421 1.5071502,-0.10222186 2.7706539,-0.0203247 0.1482843,0.009296 0.2869458,0.0179911 0.4190162,0.0255559 C -7.01462,-0.77759623 -7.865568,-1.2711732 -8.6982607,-1.7148414 l -0.4665985,0.036053 c -0.047638,0.00347 -0.091994,-0.00696 -0.1201301,-0.024989 l -0.9766257,-0.5615484 -0.48182,-0.019758 -0.0325,-0.00403 -0.04763,-0.00873 c -0.02161,-0.00463 -0.04007,-0.00986 -0.05627,-0.015658 -0.01194,-0.00406 -0.02161,-0.0093 -0.03031,-0.014492 -0.08548,-0.050545 -0.163442,-0.1022217 -0.234881,-0.1544991 -0.07038,-0.051076 -0.136407,-0.1045193 -0.200347,-0.1584933 -0.03461,-0.030787 -0.02275,-0.070268 0.02815,-0.092325 l 0.0065,-0.0029 c 0.0487,-0.022056 0.122312,-0.054575 0.223017,-0.1091497 0.216559,-0.1167492 0.439576,-0.2467887 0.661539,-0.3809283 0.167786,-0.10102 0.328069,-0.2003435 0.4817573,-0.2955666 l -0.3085613,-0.015658 c -0.03461,-0.00173 -0.06823,-0.010462 -0.092,-0.026121 -0.252148,-0.1696275 -0.443861,-0.342648 -0.616001,-0.5162698 z m 7.6081143,3.79185536 h 1.0220989 c 0.821752,0 1.76371284,-0.0737675 2.69156987,-0.14573318 1.37942833,-0.10805345 2.73064993,-0.213103 3.67577393,-0.075535 l 0.00871,0.001169 0.010813,0.001766 C 3.9910937,-0.58014057 3.9347428,-0.65387365 3.8795161,-0.72651044 3.718184,-0.9384475 3.561267,-1.1439869 3.2342534,-1.2914874 3.0891351,-1.3570554 2.7275866,-1.479601 2.2880091,-1.6282681 1.2648556,-1.9755111 -0.17408423,-2.4632916 -0.45885422,-2.7751176 -0.59527465,-2.9249157 -0.6894507,-3.0584898 -0.7738735,-3.1787029 -1.0098747,-3.5137514 -1.1647477,-3.7332527 -1.9627089,-3.801754 c -0.1786645,-0.015129 -0.399508,-0.1074178 -0.6149467,-0.2258988 -0.32372,-0.1771565 -0.6529078,-0.417547 -0.7882076,-0.5237633 -0.1180327,-0.09236 -0.2176792,-0.1765551 -0.3042768,-0.2491565 -0.3236528,-0.27291 -0.4546703,-0.383226 -1.234244,-0.6021262 -0.064903,-0.018026 -0.089888,-0.061044 -0.056289,-0.09586 0.033542,-0.034815 0.1137535,-0.048177 0.1786664,-0.030185 0.8423138,0.2369271 0.9842048,0.3559739 1.3359981,0.6521058 0.080131,0.067972 0.173194,0.1463697 0.2988071,0.245092 0.1310169,0.1027873 0.4482756,0.3344832 0.7590109,0.5040401 0.1807733,0.099323 0.3529136,0.175954 0.466664,0.1852149 0.95164933,0.081862 1.12715055,0.3315848 1.39557629,0.7136793 0.0833676,0.1184812 0.17655582,0.2502527 0.30539713,0.3913555 0.25115864,0.274677 1.65325858,0.7502628 2.65044618,1.0882099 0.4460359,0.1515653 0.813119,0.2758434 0.9743849,0.3484096 0.3789459,0.1707231 0.5478571,0.3919563 0.7221063,0.62075356 0.081193,0.10741772 0.1646267,0.21660274 0.2685572,0.31882461 0.7893281,0.0957888 1.2764869,0.0859271 2.0061723,0.0719652 0.1743799,-0.003466 0.361613,-0.007528 0.5770525,-0.009826 0.6540263,-0.008092 1.2408325,0.0237879 1.823355,0.0563069 0.396279,0.022091 0.7913706,0.043547 1.2017517,0.0522773 C 9.6838387,-0.529595 9.4867869,-0.78741168 9.2951392,-1.0400324 9.0353465,-1.3803123 8.7841222,-1.7107305 8.2503689,-1.9510862 7.5952872,-2.2460873 6.9239924,-2.377894 6.2971176,-2.5010409 5.1863116,-2.7193757 4.2054017,-2.9115894 3.6217595,-3.884782 l -0.00656,-0.00933 C 3.4593349,-4.2030044 3.2936522,-4.1710864 3.129091,-4.1391332 2.8864996,-4.0921222 2.6440404,-4.0450762 2.4243182,-4.2860683 2.2542863,-4.473051 2.1210949,-4.6350787 1.991199,-4.7924058 1.7540783,-5.0821754 1.5278311,-5.358019 1.1672722,-5.6785403 0.87604368,-5.9148662 0.69197511,-5.9160326 0.40938069,-5.9183653 c -0.12126196,-5.714e-4 -0.2588042,-0.00172 -0.42441965,-0.015653 -0.26414205,-0.022658 -0.59866896,-0.1642904 -0.93108647,-0.3460773 -0.50778717,-0.2787415 -1.02539347,-0.6561706 -1.23865767,-0.8240312 -0.1894076,-0.1480655 -0.3442814,-0.2787056 -0.4795812,-0.3925209 -0.5089074,-0.42854 -0.7221717,-0.6073925 -1.8936094,-0.9424419 -0.31614,0.1846494 -0.6766984,0.3536413 -1.038312,0.5226323 -0.6939659,0.3239854 -1.3890485,0.649773 -1.7322762,1.0759802 -0.4503847,0.5615479 -0.8423808,0.963932 -1.3144497,1.3495255 -0.4720671,0.3850285 -1.0187368,0.7496622 -1.7810444,1.2368417 -0.106109,0.06737 -0.191581,0.1161483 -0.258738,0.1515653 0.147296,0.1451677 0.309682,0.2886035 0.510029,0.4262777 l 0.5023835,0.024919 h 0.00209 0.0022 l 0.00209,6.377e-4 h 0.00115 l 0.2100353,0.010427 c 0.037906,0.00173 0.071448,0.011629 0.093114,0.026722 l 1.3122084,0.8925321 0.6343875,-0.057508 0.00224,-5.996e-4 h 0.00317 0.00224 l 0.00205,-5.663e-4 h 0.00224 v 0 h 0.00224 0.00317 0.00224 0.00205 0.00224 0.00224 0.00317 0.00205 0.00224 l 0.00224,5.663e-4 v 0 h 0.00224 v 0 h 0.00224 v 0 h 0.00224 v 0 l 0.00317,5.996e-4 v 0 h 0.00205 v 0 l 0.00224,5.996e-4 v 0 h 0.00224 v 0 h 0.00224 v 5.996e-4 h 0.00224 v 0 l 0.00224,5.996e-4 v 0 h 0.00205 v 0 l 0.00224,5.663e-4 v 0 h 0.00205 v 5.995e-4 h 0.00224 v 0 l 0.00224,5.996e-4 v 0 l 0.00205,5.997e-4 v 0 h 0.00224 v 5.995e-4 l 0.00652,0.00117 v 0 l 0.00224,5.663e-4 v 0 l 0.00107,5.996e-4 h 0.00115 l 0.00115,5.997e-4 v 0 l 0.00205,5.995e-4 v 0 l 0.00224,5.996e-4 v 0 l 0.00317,0.00114 h 0.00115 l 0.00107,5.996e-4 v 5.996e-4 l 0.00224,5.995e-4 v 0 0 l 0.00317,0.00114 h 0.00115 l 0.00107,5.995e-4 v 0 l 0.00224,5.996e-4 v 5.997e-4 l 0.00107,5.662e-4 v 0 l 0.00224,5.996e-4 v 0 l 0.00224,0.00117 v 0 5.996e-4 h 0.00115 v 0 l 0.00115,5.663e-4 h 0.00115 v 6.376e-4 l 0.00107,5.664e-4 v 0 l 0.00224,5.995e-4 v 5.997e-4 l 0.00107,5.662e-4 v 0 l 0.00115,6.377e-4 0.00115,5.663e-4 0.00115,6.376e-4 v 0 l 0.00107,5.663e-4 v 5.996e-4 l 0.00224,5.997e-4 v 0 l 0.00115,0.00117 v 0 l 0.00107,5.663e-4 v 5.996e-4 l 0.00115,5.996e-4 h 0.00115 l 0.00107,0.00117 v 0 l 0.021685,0.013326 v 5.996e-4 l 0.037906,0.023824 0.0054,0.0029 v 5.996e-4 l 0.0054,0.0029 0.036768,0.023222 v 5.995e-4 l 0.02064,0.01276 0.00115,5.663e-4 0.041113,0.025591 v 5.997e-4 l 0.02064,0.012194 v 5.996e-4 l 0.080137,0.05051 0.00107,5.997e-4 0.1353633,0.085962 0.00115,5.995e-4 0.05627,0.035417 v 5.996e-4 l 0.055226,0.034816 0.00115,5.995e-4 0.1970504,0.1248083 v 0 l 0.069267,0.044183 0.00115,5.663e-4 0.068222,0.042981 0.00107,5.997e-4 0.015102,0.010462 0.00115,5.995e-4 0.085544,0.053974 0.015288,0.0093 0.00205,0.00177 0.013984,0.0087 0.00224,0.00173 0.013984,0.00933 0.00317,0.00117 0.01417,0.00926 0.00205,0.00177 0.01417,0.00873 0.00317,0.00173 0.013984,0.0087 0.00224,0.00233 0.013984,0.00809 0.00317,0.0023 0.013052,0.00873 0.00317,0.00173 0.013052,0.00873 0.00429,0.0023 0.02918,0.018557 0.00447,0.0029 0.011933,0.00756 0.00447,0.0029 0.011933,0.00753 0.0054,0.0029 0.035724,0.022693 0.00447,0.0029 0.040012,0.025556 0.035724,0.022657 0.00429,0.00293 0.035724,0.022657 0.00447,0.0023 0.035724,0.022657 0.00447,0.0029 0.035724,0.022658 0.00447,0.00293 0.035724,0.022622 0.00429,0.0029 0.035724,0.022693 0.00336,0.0029 0.036768,0.022657 0.00317,0.0023 0.036843,0.023222 0.00429,0.0023 0.035724,0.023222 0.00317,0.00233 0.036842,0.022622 0.00317,0.00293 0.036768,0.022657 0.00336,0.0023 0.036768,0.023222 0.00317,0.0023 0.036842,0.023222 0.00317,0.0023 0.036824,0.023222 0.00317,0.00233 0.036843,0.022657 0.00317,0.0023 0.036768,0.023222 0.00336,0.0023 0.036768,0.023222 0.00317,0.0023 0.036842,0.023222 0.00317,0.00233 0.036842,0.023187 0.00317,0.00177 0.036824,0.023222 0.00317,0.0023 0.036768,0.023222 0.00336,0.00173 0.036768,0.023823 0.00317,0.00173 0.036843,0.023258 0.00317,0.0023 0.036842,0.023222 0.00317,0.00173 0.037831,0.023823 0.00224,0.00173 0.03783,0.023258 0.00224,0.0023 0.037906,0.023222 0.00205,0.00173 0.037906,0.023824 0.00224,0.00173 0.037905,0.023258 0.00205,0.00173 0.037901,0.023788 0.00229,0.00177 0.037825,0.023823 0.00336,0.00114 0.037901,0.023788 0.00212,0.00181 0.037963,0.023788 0.00212,0.00114 0.037825,0.023824 0.00229,0.00177 0.037901,0.023788 0.00229,0.00117 0.037825,0.023823 0.00229,0.00117 0.037825,0.024353 0.00212,0.00117 0.039015,0.023823 0.00115,0.00117 0.038953,0.023788 0.00115,0.00114 0.038953,0.024425 0.00212,0.00114 0.037963,0.023788 0.00212,0.00117 0.038953,0.024389 0.00115,5.997e-4 0.038953,0.024353 0.00115,0.00117 0.039015,0.023824 0.00115,0.00114 0.038953,0.023823 0.00229,0.001169 0.038953,0.0243535 0.00115,5.9962e-4 0.039015,0.0243535 0.00115,5.9962e-4 0.08007,0.0493789 v 5.6635e-4 l 0.040066,0.0243887 0.00115,5.9962e-4 0.038953,0.0243535 0.00115,5.9962e-4 0.040066,0.0249543 v 0 l 0.040004,0.0249894 h 0.00115 l 0.038953,0.0249543 h 0.00115 l 0.040066,0.0249543 v 0 l 0.040066,0.0243895 0.00107,5.9954e-4 0.040005,0.0243535 v 5.9962e-4 l 0.040066,0.0243887 v 5.6627e-4 l 0.041118,0.0243895 v 0 l 0.040005,0.0249543 v 0 l 0.041194,0.0249902 0.040066,0.0243535 0.00321,0.001733 0.00212,0.001806 v 0 l 0.00229,0.001733 h 0.00115 l 0.00229,0.001733 v 0 l 0.00212,0.001169 0.00321,0.001733 0.00229,0.001766 v 0 l 0.00336,0.001136 v 0 l 0.00229,0.001766 0.00212,0.001766 v 0 l 0.00321,0.001136 v 0 l 0.00229,0.001766 v 0 l 0.00212,0.001136 v 0 l 0.00321,0.001766 v 0 l 0.00229,0.001136 v 0 l 0.00229,0.001766 v 0 l 0.00229,0.001136 v 0 l 0.00321,0.001169 v 5.9962e-4 l 0.00212,0.001136 v 0 l 0.00229,0.001202 v 0 l 0.00229,0.001095 v 0 l 0.00229,0.001806 v 0 l 0.00212,0.001136 v 0 l 0.00212,0.001136 v 0 l 0.00229,0.001169 v 5.9962e-4 l 0.00229,0.001169 h 0.00115 l 0.00229,0.001136 v 0 l 0.00212,0.001169 v 0 l 0.00212,0.001169 v 0 l 0.00229,0.001136 0.00115,0.001169 0.00107,5.9962e-4 0.00115,0.001169 h 0.00115 l 0.00115,0.001136 h 0.00107 l 0.00115,0.001136 v 0 l 0.00212,0.001169 0.00229,0.001169 v 0 l 0.00212,0.001169 0.00229,5.6627e-4 v 5.9962e-4 l 0.00212,0.001169 v 0 l 0.00229,5.9962e-4 0.00107,0.001136 v 0 l 0.00229,0.001169 0.00212,0.001136 0.00229,0.001169 v 0 l 0.00107,0.001169 h 0.00115 l 0.00115,5.6627e-4 v 0 l 0.00229,0.001169 0.00229,0.001169 0.00115,0.001169 v 0 l 0.00212,5.6627e-4 0.00212,0.001169 0.00115,0.001169 v 0 l 0.00229,5.9963e-4 0.00229,0.001136 0.00115,0.001169 0.00212,5.9962e-4 0.00115,0.001136 0.00212,5.9962e-4 0.00115,0.001169 0.00229,0.001136 0.00107,5.9954e-4 0.00229,0.001169 0.00107,5.9962e-4 0.00229,5.6627e-4 0.00212,0.001766 0.00229,0.001169 0.00321,0.001733 0.00212,0.001169 0.00229,0.001136 0.00212,0.001169 0.00229,0.001733 0.00212,0.001169 0.00321,0.001169 0.00229,0.001169 0.00229,0.001136 0.00115,0.001136 0.00321,0.001169 0.00115,0.001169 0.00212,0.001169 z"
           style="clip-rule:evenodd;fill-rule:evenodd;stroke-width:0.0482644"
           id="path266"
           sodipodi:nodetypes="cccccccccccccccccccccccccccccccccccccccccccccccccccccccccccccccccccccccccccccccccccccccccccccccccccccccccccccccccccccccccccccccccccccccccccccccccccccccccccccccccccccccccccccccccccccccccccccccccccccccccccccccccccccccccccccccccccccccccccccccccccccccccccccccccccccccccccccccccccccccccccccccccccccccccccccccccccccccccccccccccccccccccccccccccccccccccccccccccscccccccccccccccccccccccccccccccccccccccccccccccccccccccccccccccccccccccccccccccccccccccccccccccccccccccccccccccccccccccccccccccccccccccccccccccccccccccccccccccccccccccccccccccccccccccccccccccccccccccccccccccccccccccccccccccccccccccccccccccccccccccccccccccccccccccccccccccccccccccccccccccccccccccccccccccccccccccccccccccccccccccccccccccccccccccccccccccccccccccccccccccccccccccccccccccccccccccccccccccccccccccccccccccccccccccccccccccccccccccccccccccccccccccccccccccccc" />
        <g
           id="g16098"
           style="fill:#ffffff;fill-opacity:1"
           transform="translate(-88.534251,7.0982046)">
          <path
             id="path16085"
             style="fill:#ffffff;fill-opacity:1"
             d="m 89.960938,-9.1914062 c 0.07521,0.026819 0.145143,0.053648 0.220703,0.080078 0.2756,0.096402 0.551484,0.1889508 0.800781,0.2734375 0.223018,0.075782 0.426067,0.1459923 0.59375,0.2050781 0.167683,0.059086 0.298273,0.1082483 0.378906,0.1445313 0.09474,0.042681 0.178153,0.088395 0.25,0.1367187 0.07185,0.048324 0.133765,0.09972 0.189453,0.1523437 0.05569,0.052624 0.104131,0.1065267 0.150391,0.1621094 0.04626,0.055583 0.08925,0.1127227 0.132812,0.1699219 0.04059,0.053709 0.08295,0.1066551 0.126954,0.1601563 0.044,0.053501 0.09061,0.1070921 0.142578,0.1582031 0.197332,0.023947 0.374897,0.040406 0.542968,0.052734 0.168072,0.012328 0.326589,0.019556 0.482422,0.023438 0.311666,0.00776 0.615626,0.00308 0.980469,-0.00391 0.17438,-0.0035 0.360733,-0.00747 0.576172,-0.00977 0.327013,-0.00405 0.638183,6.937e-4 0.939453,0.011719 0.30127,0.011025 0.593505,0.028662 0.884766,0.044922 0.396278,0.02209 0.790791,0.042051 1.201172,0.050781 -0.07986,-0.059822 -0.152362,-0.1198735 -0.21875,-0.1816407 -0.06639,-0.061767 -0.12702,-0.1245287 -0.183594,-0.1875 -0.113148,-0.1259425 -0.208864,-0.2525964 -0.304688,-0.3789062 -0.06495,-0.08507 -0.130793,-0.1713222 -0.199218,-0.2539063 -0.06843,-0.082584 -0.139704,-0.1626424 -0.220704,-0.2402344 -0.081,-0.077592 -0.170767,-0.1525626 -0.273437,-0.2226562 -0.05133,-0.035047 -0.105604,-0.06886 -0.164063,-0.1015625 -0.05846,-0.032702 -0.120781,-0.063705 -0.1875,-0.09375 -0.16377,-0.07375 -0.329291,-0.1375938 -0.49414,-0.1933594 -0.16485,-0.055765 -0.330107,-0.1038743 -0.494141,-0.1464843 -0.164034,-0.04261 -0.326958,-0.078997 -0.488281,-0.1132813 -0.161324,-0.034284 -0.319844,-0.066869 -0.476563,-0.097656 -0.277701,-0.054584 -0.547401,-0.1059924 -0.804687,-0.1699218 -0.128643,-0.031965 -0.25498,-0.066439 -0.376953,-0.1054688 -0.121973,-0.03903 -0.241211,-0.083564 -0.355469,-0.1328125 -0.114258,-0.049248 -0.222626,-0.1033964 -0.328125,-0.1660154 -0.105499,-0.06262 -0.207039,-0.133748 -0.302734,-0.212891 -0.04785,-0.03957 -0.09542,-0.08071 -0.140625,-0.125 -0.0452,-0.04429 -0.08844,-0.09122 -0.13086,-0.140625 -0.04242,-0.04941 -0.08353,-0.10133 -0.123047,-0.15625 -0.03952,-0.05492 -0.0768,-0.113004 -0.113281,-0.173828 l -0.0078,-0.0098 c -0.01948,-0.03862 -0.03883,-0.07098 -0.05859,-0.09961 -0.01977,-0.02863 -0.03858,-0.05229 -0.05859,-0.07227 -0.02001,-0.01998 -0.04034,-0.03618 -0.06055,-0.04883 -0.02021,-0.01265 -0.04018,-0.02264 -0.06055,-0.0293 -0.04074,-0.01332 -0.08194,-0.01633 -0.123046,-0.01367 -0.04111,0.0027 -0.08191,0.01154 -0.123047,0.01953 -0.06065,0.01175 -0.121363,0.02399 -0.181641,0.03125 -0.06028,0.0073 -0.120485,0.0082 -0.179688,0.002 -0.0296,-0.0031 -0.05869,-0.0074 -0.08789,-0.01563 -0.0292,-0.0082 -0.05918,-0.01883 -0.08789,-0.0332 -0.02871,-0.01437 -0.05781,-0.033 -0.08594,-0.05469 -0.0087,-0.0067 -0.01677,-0.01598 -0.02539,-0.02344 a 19,19 0 0 1 -1.072265,2.1289061 z" />
          <path
             id="path16093"
             style="fill:#ffffff;fill-opacity:1"
             d="m 88.853516,-7.5175781 c 0.01963,-0.00152 0.03897,-0.00238 0.05859,-0.00391 0.344857,-0.027087 0.688012,-0.053237 1.023438,-0.076172 0.335426,-0.022935 0.664329,-0.043383 0.978515,-0.054688 0.314187,-0.011305 0.613393,-0.013664 0.894532,-0.00586 0.140569,0.0039 0.276157,0.00945 0.40625,0.019531 0.130093,0.010082 0.254906,0.02382 0.373047,0.041016 l 0.0098,0.00195 0.0098,0.00195 c -0.06496,-0.073833 -0.120554,-0.1480672 -0.175781,-0.2207031 -0.04033,-0.052984 -0.08054,-0.1048723 -0.123047,-0.15625 -0.04251,-0.051378 -0.08854,-0.1022334 -0.138672,-0.1503907 -0.05014,-0.048157 -0.104751,-0.093396 -0.167969,-0.1367187 -0.06322,-0.043323 -0.135043,-0.084219 -0.216797,-0.1210937 -0.07256,-0.032784 -0.197854,-0.079303 -0.361328,-0.1367188 -0.163474,-0.057416 -0.364195,-0.1268384 -0.583984,-0.2011719 -0.255788,-0.086811 -0.537082,-0.1818173 -0.820313,-0.28125 -0.04672,-0.0164 -0.09003,-0.034194 -0.136719,-0.050781 a 19,19 0 0 1 -1.029296,1.53125 z" />
        </g>
      </g>
      <g
         id="g319">
        <path
           d="M -7.4763145,0.66853183 C -11.980673,1.3961749 -12.890614,1.7777348 -13.934848,2.5392566 c -0.352984,0.297288 -0.781986,0.8232704 -0.5721,1.3371424 0.854516,1.0327275 1.104434,1.0530336 3.177724,2.4266395 2.7891499,1.8592514 4.4066527,2.4701615 4.8926886,3.0758082 0.1554185,0.1941261 0.1497669,0.2185617 -0.064993,0.3389379 -0.3532237,0.1976898 -0.6376338,0.7289744 -2.2889546,0.8735494 -0.5396287,0.08648 -0.2932415,0.02335 -0.9320263,0.188285 -0.7007957,0.226829 -1.0794517,0.479376 -1.2857347,0.86122 -0.06782,0.123679 -0.0763,0.173049 -0.07912,0.424046 0,0.279753 0.0028,0.288728 0.121509,0.552673 0.0989,0.212419 0.172373,0.327103 0.367353,0.559288 0.293882,0.345702 0.570809,0.583859 1.0653226,0.911248 0.8392596,0.554897 1.7406866,0.973816 4.3234587,2.00569 3.0857627,1.230771 4.48735452,1.898952 5.82395319,2.778911 1.39028871,0.912032 2.14812121,1.539256 3.30347591,2.659383 0.5755965,0.621834 1.2447125,1.287967 1.6092394,1.6433 0.7460086,0.727783 0.7262413,0.700864 1.9469826,1.935383 0.5936829,0.584507 1.6124427,1.43789 2.3737563,3.353329 0.5214763,1.629323 -0.3224162,2.209769 0.6591663,2.631754 1.306463,0.935802 5.065835,-0.0142 6.544975,0.130498 0.499427,0.355702 1.450447,-0.646988 2.980968,-0.768058 1.792215,-0.457003 3.615076,-0.986469 4.284788,-1.345939 -1.353305,-2.659879 -2.117794,-3.455784 -3.54221,-4.892814 -0.231714,-0.365823 -1.081675,-1.11435 -1.449028,-1.453226 -1.508974,-1.393563 -3.70717,-2.578779 -6.832494,-3.946512 C 11.267459,18.284233 9.9958531,17.780261 7.2802689,16.756052 4.4036147,15.672359 4.0927778,15.549731 3.3241629,15.219224 2.3577427,14.8058 1.6484694,14.406634 1.4534899,14.168797 1.4026257,14.108964 1.3432841,14.010901 1.3206778,13.953225 1.2839425,13.856323 1.2839425,13.836542 1.3235036,13.76157 1.4591415,13.502907 2.0779895,13.35488 3.6660835,13.196907 5.3756864,13.023623 5.9832313,12.901861 6.4523124,12.631349 6.8987872,12.373806 7.0570315,11.938279 6.8846583,11.438804 6.5879503,10.586787 5.4717633,9.7711253 3.1122286,8.6768858 1.7191142,8.0328056 -2.4041331,7.566438 -5.8826806,6.2522799 -8.5163168,5.25665 -9.2905833,4.95623 -10.093108,4.6169179 -11.449487,4.0443083 -12.19267,3.630686 -12.333959,3.3712323 c -0.175199,-0.3304261 0.09608,-0.5849524 0.864692,-0.8139516 1.054019,-0.3143126 1.29075,-0.4458475 3.5029074,-1.2239361 1.3947271,-0.60162824 1.2755206,-0.78756322 0.4900451,-0.66481277 z"
           id="path494"
           sodipodi:nodetypes="ccccccccccccccccccccccccccccccccccccccccc"
           style="fill:#ffffff;fill-opacity:1;stroke-width:0.00282579" />
        <path
           id="path6850"
           d="m -7.0695116,0.63696833 c -0.09984,-0.0096 -0.254803,0.0025 -0.451172,0.0332 -4.5043544,0.72764197 -5.4147514,1.10957297 -6.4589844,1.87109397 -0.352984,0.297287 -0.780199,0.822066 -0.570313,1.335937 0.854515,1.032727 1.104447,1.05413 3.177734,2.427734 2.7891484,1.85925 4.4065434,2.470526 4.8925794,3.076172 0.155417,0.194126 0.148349,0.217515 -0.06641,0.337891 -0.353222,0.19769 -0.637743,0.7284727 -2.289062,0.8730477 -0.539629,0.08648 -0.292856,0.02451 -0.931641,0.189453 -0.7007944,0.226828 -1.0788734,0.479485 -1.2851564,0.861328 -0.06782,0.12368 -0.07726,0.172831 -0.08008,0.423828 0,0.279753 0.0043,0.28879 0.123047,0.552734 0.0989,0.212419 0.172207,0.326409 0.367187,0.558594 0.293882,0.345702 0.569941,0.584721 1.0644534,0.912109 0.83926,0.554897 1.74145,0.973987 4.324219,2.00586 0.739327,0.294884 1.371216,0.553978 1.939453,0.794922 -0.917204,-3.215171 -0.969755,-6.615443 -0.152344,-9.8574227 -0.826898,-0.224975 -1.661181,-0.477158 -2.460937,-0.779297 -2.633633,-0.995629 -3.408413,-1.295454 -4.2109374,-1.634765 -1.356378,-0.572609 -2.098946,-0.986641 -2.240235,-1.246094 -0.175199,-0.330426 0.09662,-0.585454 0.865235,-0.814453 1.054017,-0.314313 1.289798,-0.446522 3.5019534,-1.22461 1.046045,-0.45121997 1.240927,-0.66855497 0.941406,-0.69726497 z"
           sodipodi:nodetypes="scccccccccccccccccccccss" />
      </g>
    </g>
    <text
       xml:space="preserve"
       style="font-size:48px;line-height:1;font-family:sans-serif"
       x="48.935459"
       y="18.455999"
       id="text302"><tspan
         sodipodi:role="line"
         id="tspan300"
         x="48.935459"
         y="18.455999"
         style="font-style:normal;font-variant:normal;font-weight:normal;font-stretch:normal;font-size:48px;font-family:sans-serif;-inkscape-font-specification:sans-serif">盘古OS</tspan></text>
  </g>
</svg>
