<?xml version="1.0" encoding="UTF-8" standalone="no"?>
<svg xmlns="http://www.w3.org/2000/svg" xmlns:xlink="http://www.w3.org/1999/xlink" contentStyleType="text/css" height="245px" preserveAspectRatio="none" style="width:229px;height:245px;background:#FFFFFF;" version="1.1" viewBox="0 0 229 245" width="229px" zoomAndPan="magnify"><defs/><g><g id="elem_data_inf"><rect fill="#F1F1F1" height="44.5938" style="stroke:#181818;stroke-width:0.5;" width="70" x="85" y="194"/><text fill="#000000" font-family="sans-serif" font-size="14" lengthAdjust="spacing" textLength="56" x="92" y="208.9951">数据界面</text><line style="stroke:#181818;stroke-width:0.5;" x1="86" x2="154" y1="214.2969" y2="214.2969"/><ellipse cx="96" cy="225.2969" fill="#000000" rx="3" ry="3" style="stroke:#000000;stroke-width:1.0;"/><text fill="#000000" font-family="sans-serif" font-size="14" lengthAdjust="spacing" textLength="42" x="105" y="231.292">结构树</text></g><g id="elem_user_inf"><rect fill="#F1F1F1" height="77.1875" style="stroke:#181818;stroke-width:0.5;" width="82" x="140" y="23.5"/><text fill="#000000" font-family="sans-serif" font-size="14" lengthAdjust="spacing" textLength="56" x="153" y="38.4951">用户界面</text><line style="stroke:#181818;stroke-width:0.5;" x1="141" x2="221" y1="43.7969" y2="43.7969"/><ellipse cx="151" cy="54.7969" fill="#000000" rx="3" ry="3" style="stroke:#000000;stroke-width:1.0;"/><text fill="#000000" font-family="sans-serif" font-size="14" lengthAdjust="spacing" textLength="42" x="160" y="60.792">显示器</text><ellipse cx="151" cy="71.0938" fill="#000000" rx="3" ry="3" style="stroke:#000000;stroke-width:1.0;"/><text fill="#000000" font-family="sans-serif" font-size="14" lengthAdjust="spacing" textLength="56" x="160" y="77.0889">外设反馈</text><ellipse cx="151" cy="87.3906" fill="#000000" rx="3" ry="3" style="stroke:#000000;stroke-width:1.0;"/><text fill="#000000" font-family="sans-serif" font-size="14" lengthAdjust="spacing" textLength="15" x="160" y="93.3857">...</text></g><g id="elem_interact_inf"><rect fill="#F1F1F1" height="109.7813" style="stroke:#181818;stroke-width:0.5;" width="70" x="7" y="7"/><text fill="#000000" font-family="sans-serif" font-size="14" lengthAdjust="spacing" textLength="56" x="14" y="21.9951">交互界面</text><line style="stroke:#181818;stroke-width:0.5;" x1="8" x2="76" y1="27.2969" y2="27.2969"/><ellipse cx="18" cy="38.2969" fill="#000000" rx="3" ry="3" style="stroke:#000000;stroke-width:1.0;"/><text fill="#000000" font-family="sans-serif" font-size="14" lengthAdjust="spacing" textLength="28" x="27" y="44.292">鼠标</text><ellipse cx="18" cy="54.5938" fill="#000000" rx="3" ry="3" style="stroke:#000000;stroke-width:1.0;"/><text fill="#000000" font-family="sans-serif" font-size="14" lengthAdjust="spacing" textLength="28" x="27" y="60.5889">键盘</text><ellipse cx="18" cy="70.8906" fill="#000000" rx="3" ry="3" style="stroke:#000000;stroke-width:1.0;"/><text fill="#000000" font-family="sans-serif" font-size="14" lengthAdjust="spacing" textLength="28" x="27" y="76.8857">语音</text><ellipse cx="18" cy="87.1875" fill="#000000" rx="3" ry="3" style="stroke:#000000;stroke-width:1.0;"/><text fill="#000000" font-family="sans-serif" font-size="14" lengthAdjust="spacing" textLength="28" x="27" y="93.1826">网络</text><ellipse cx="18" cy="103.4844" fill="#000000" rx="3" ry="3" style="stroke:#000000;stroke-width:1.0;"/><text fill="#000000" font-family="sans-serif" font-size="14" lengthAdjust="spacing" textLength="15" x="27" y="109.4795">...</text></g><!--MD5=[b030b1b4b66871e9c97e9837c8aee77b]
reverse link interact_inf to user_inf--><g id="link_interact_inf_user_inf"><path codeLine="19" d="M82.0868,62 C100.1791,62 121.532,62 139.76,62 " fill="none" id="interact_inf-backto-user_inf" style="stroke:#181818;stroke-width:1.0;"/><polygon fill="#181818" points="77.0756,62,86.0756,66,82.0756,62,86.0756,58,77.0756,62" style="stroke:#181818;stroke-width:1.0;"/><text fill="#000000" font-family="sans-serif" font-size="13" lengthAdjust="spacing" textLength="26" x="95.5" y="55.0669">引导</text></g><!--MD5=[813e79f7b7f4a0b4af8b62c4d134c84f]
link interact_inf to data_inf--><g id="link_interact_inf_data_inf"><path codeLine="20" d="M69.7195,117.195 C82.2052,141.6064 96.3787,169.3173 106.4876,189.0814 " fill="none" id="interact_inf-to-data_inf" style="stroke:#181818;stroke-width:1.0;"/><polygon fill="#181818" points="108.837,193.6758,108.3004,183.8416,106.5604,189.2242,101.1778,187.4841,108.837,193.6758" style="stroke:#181818;stroke-width:1.0;"/><text fill="#000000" font-family="sans-serif" font-size="13" lengthAdjust="spacing" textLength="26" x="94" y="160.0669">变更</text></g><!--MD5=[fe8dc31777a1902e7d3fa678e3063ef6]
reverse link user_inf to data_inf--><g id="link_user_inf_data_inf"><path codeLine="21" d="M163.964,105.589 C152.495,134.263 137.847,170.8818 128.693,193.7669 " fill="none" id="user_inf-backto-data_inf" style="stroke:#181818;stroke-width:1.0;"/><polygon fill="#181818" points="165.921,100.697,158.8646,107.5677,164.064,105.3394,166.2924,110.5389,165.921,100.697" style="stroke:#181818;stroke-width:1.0;"/><text fill="#000000" font-family="sans-serif" font-size="13" lengthAdjust="spacing" textLength="26" x="147" y="160.0669">呈现</text></g><!--MD5=[22df2de091cce35026ef7b350042d24c]
@startuml
object "数据界面" as data_inf {
  *结构树
}

object "用户界面" as user_inf {
  *显示器
  *外设反馈
  *...
}

object "交互界面" as interact_inf {
  *鼠标
  *键盘
  *语音
  *网络
  *...
}

user_inf -left-> interact_inf : 引导
interact_inf -down-> data_inf : 变更
data_inf -up-> user_inf : 呈现
@enduml

PlantUML version 1.2022.7beta2(Unknown compile time)
(GPL source distribution)
Java Runtime: Java(TM) SE Runtime Environment
JVM: Java HotSpot(TM) 64-Bit Server VM
Default Encoding: UTF-8
Language: en
Country: US
--></g></svg>